<svg width="48" height="48" viewBox="0 0 48 48" fill="none" xmlns="http://www.w3.org/2000/svg">
<circle cx="24" cy="24" r="24" fill="#6957E7"/>
<path d="M26.63 14.6257C26.63 13.1841 25.4544 12 24.0043 12C22.5542 12 21.37 13.1841 21.3786 14.6257V21.3786H14.6257C13.1841 21.3786 12 22.5542 12 24.0043C12 25.4458 13.1841 26.63 14.6257 26.63H21.3786V33.3743C21.3786 34.8159 22.5542 36 24.0043 36C25.4458 36 26.63 34.8245 26.63 33.3743V26.63H33.3743C34.8159 26.63 36 25.4544 36 24.0043C36 22.5627 34.8245 21.3786 33.3743 21.3786H26.63V14.6257Z" fill="#FAFAFB"/>
</svg>
