<svg width="24" height="24" viewBox="0 0 24 24" fill="none" xmlns="http://www.w3.org/2000/svg">
<path d="M21.6328 6.64686C21.3187 5.91945 20.8657 5.26027 20.2992 4.70624C19.7323 4.15055 19.064 3.70895 18.3305 3.40545C17.5699 3.0895 16.7541 2.92778 15.9305 2.92967C14.775 2.92967 13.6477 3.24608 12.668 3.84374C12.4336 3.9867 12.2109 4.14374 12 4.31483C11.7891 4.14374 11.5664 3.9867 11.332 3.84374C10.3523 3.24608 9.225 2.92967 8.06953 2.92967C7.2375 2.92967 6.43125 3.08905 5.66953 3.40545C4.93359 3.71014 4.27031 4.14842 3.70078 4.70624C3.13359 5.25965 2.6805 5.91898 2.36719 6.64686C2.04141 7.40389 1.875 8.2078 1.875 9.03514C1.875 9.81561 2.03438 10.6289 2.35078 11.4562C2.61563 12.1476 2.99531 12.8648 3.48047 13.589C4.24922 14.7351 5.30625 15.9305 6.61875 17.1422C8.79375 19.1508 10.9477 20.5383 11.0391 20.5945L11.5945 20.9508C11.8406 21.1078 12.157 21.1078 12.4031 20.9508L12.9586 20.5945C13.05 20.5359 15.2016 19.1508 17.3789 17.1422C18.6914 15.9305 19.7484 14.7351 20.5172 13.589C21.0023 12.8648 21.3844 12.1476 21.6469 11.4562C21.9633 10.6289 22.1227 9.81561 22.1227 9.03514C22.125 8.2078 21.9586 7.40389 21.6328 6.64686ZM12 19.0969C12 19.0969 3.65625 13.7508 3.65625 9.03514C3.65625 6.64686 5.63203 4.71092 8.06953 4.71092C9.78281 4.71092 11.2688 5.66717 12 7.06405C12.7312 5.66717 14.2172 4.71092 15.9305 4.71092C18.368 4.71092 20.3438 6.64686 20.3438 9.03514C20.3438 13.7508 12 19.0969 12 19.0969Z" fill="#1D1C22"/>
</svg>
