<svg width="26" height="26" viewBox="0 0 26 26" fill="none" xmlns="http://www.w3.org/2000/svg">
<path d="M4.1995 25C2.4325 25 1 23.6934 1 22.08V10.3442C1 9.45757 1.4425 8.61758 2.2 8.06426L11.0005 1.64036C11.5628 1.22648 12.2699 1 13 1C13.7301 1 14.4372 1.22648 14.9995 1.64036L23.7985 8.06426C24.5575 8.61758 25 9.45757 25 10.3442V22.08C25 23.6934 23.5675 25 21.8005 25H4.1995Z" stroke="#6957E7" stroke-width="2" stroke-linecap="round" stroke-linejoin="round"/>
<path d="M9.25 25V17.6668C9.25 16.9595 9.56607 16.2813 10.1287 15.7812C10.6913 15.2811 11.4544 15.0002 12.25 15.0002H13.75C14.5456 15.0002 15.3087 15.2811 15.8713 15.7812C16.4339 16.2813 16.75 16.9595 16.75 17.6668V25" stroke="#6957E7" stroke-width="2" stroke-linecap="round" stroke-linejoin="round"/>
</svg>
