<svg width="24" height="24" viewBox="0 0 24 24" fill="none" xmlns="http://www.w3.org/2000/svg">
<g clip-path="url(#clip0_34_190)">
<path d="M6 12.358H2C1.73478 12.358 1.48043 12.4634 1.29289 12.6509C1.10536 12.8385 1 13.0928 1 13.358V21.358C1 21.6232 1.10536 21.8776 1.29289 22.0651C1.48043 22.2527 1.73478 22.358 2 22.358H6C6.26522 22.358 6.51957 22.2527 6.70711 22.0651C6.89464 21.8776 7 21.6232 7 21.358V13.358C7 13.0928 6.89464 12.8385 6.70711 12.6509C6.51957 12.4634 6.26522 12.358 6 12.358ZM5 20.358H3V14.358H5V20.358ZM22 8.35803H18C17.7348 8.35803 17.4804 8.46339 17.2929 8.65093C17.1054 8.83846 17 9.09282 17 9.35803V21.358C17 21.6232 17.1054 21.8776 17.2929 22.0651C17.4804 22.2527 17.7348 22.358 18 22.358H22C22.2652 22.358 22.5196 22.2527 22.7071 22.0651C22.8946 21.8776 23 21.6232 23 21.358V9.35803C23 9.09282 22.8946 8.83846 22.7071 8.65093C22.5196 8.46339 22.2652 8.35803 22 8.35803ZM21 20.358H19V10.358H21V20.358ZM14 0.358032H10C9.73478 0.358032 9.48043 0.463389 9.29289 0.650925C9.10536 0.838462 9 1.09282 9 1.35803V21.358C9 21.6232 9.10536 21.8776 9.29289 22.0651C9.48043 22.2527 9.73478 22.358 10 22.358H14C14.2652 22.358 14.5196 22.2527 14.7071 22.0651C14.8946 21.8776 15 21.6232 15 21.358V1.35803C15 1.09282 14.8946 0.838462 14.7071 0.650925C14.5196 0.463389 14.2652 0.358032 14 0.358032ZM13 20.358H11V2.35803H13V20.358Z" fill="#1D1C22"/>
</g>
<defs>
<clipPath id="clip0_34_190">
<rect width="24" height="23.7037" fill="white"/>
</clipPath>
</defs>
</svg>
